<?xml version="1.0" encoding="utf-8"?>
<!-- Generator: Adobe Illustrator 23.0.0, SVG Export Plug-In . SVG Version: 6.00 Build 0)  -->
<svg version="1.1" id="Layer_1" xmlns="http://www.w3.org/2000/svg" xmlns:xlink="http://www.w3.org/1999/xlink" x="0px" y="0px"
	 viewBox="0 0 455.6 181" style="enable-background:new 0 0 455.6 181;" xml:space="preserve">
<style type="text/css">
	.st0{fill:#045AA4;}
	.st1{fill:#FAB720;}
	.st2{fill:#DC3D26;}
	.st3{fill:#FBE330;}
	.st4{fill:#F37228;}
	.st5{fill:#FFD9A6;}
	.st6{fill:#454446;}
	.st7{fill:#FFFFFF;}
	.st8{fill:#F15A29;}
	.st9{fill:#F7941D;}
</style>
<g>
	<g>
		<path class="st0" d="M28.8,111.6V58.4h4.5v53.2H28.8z M28.8,122.7v-5.4h4.5v5.4H28.8z"/>
		<path class="st0" d="M99.1,122.7V67.1l-25.4,43.4h-2.9L45.4,67.1v55.6h-4.6V58.4h4.6l26.8,46l26.8-46h4.6v64.3H99.1z"/>
		<path class="st0" d="M110,122.7V58.4h26.5c10.9,0,18.8,10.1,18.8,19.9c0,10.3-7.3,20.1-18.1,20.1h-22.5v24.3H110z M114.7,94.2
			h22.2c8.4,0,13.7-7.7,13.7-15.9c0-8.4-6.4-15.8-14.2-15.8h-21.7V94.2z"/>
		<path class="st0" d="M148.8,122.7l27.4-64.3h3.8l27.4,64.3h-5l-9-21.2h-30.7l-9,21.2H148.8z M178.1,64l-14.3,33.7h28.4L178.1,64z"
			/>
		<path class="st0" d="M232.9,58c11.4,0,19.8,5.9,23.6,14l-3.8,2.2c-4.4-8.9-12.7-12-20.2-12c-16.3,0-25.5,14.5-25.5,28.1
			c0,15.1,11.2,28.6,25.7,28.6c7.7,0,16.8-3.8,21.2-12.6l3.9,1.9c-4.3,9.7-15.6,15-25.5,15c-17.6,0-30-16.9-30-33.2
			C202.5,74.6,213.6,58,232.9,58z"/>
		<path class="st0" d="M252.3,58.4v4.2h23.6v50.5c1.2-1,2.7-1.7,4.6-1.8V62.6H304v-4.2H252.3z"/>
	</g>
	<g>
		<path class="st1" d="M394.2,74c1.5-2.1,7.2-7.2,9.3-8c1.4-0.6,2.4-0.1,2.6-0.1c0.5,0-0.2-1.9-1.4-3.1c-1.6-1.9-4.3-4.3-7.2-4
			c-3.2,1-7.9,9-7.8,12.6C389.9,73.6,392.5,76.2,394.2,74z"/>
		<path class="st1" d="M446.6,76c-6.2-2.1-29.3,14.7-40.1,26.5c0,0,5.3-7.7,6.9-9.7c4-5.1,8.3-10.2,10.2-9.9
			c0.9,0.1,1.2,0.6,1.2,0.2c0-3.2-4.7-8-7.6-8c-0.4,0-1.1,0.1-1.9,0.7c-2.5,2-7.4,7.7-10.8,11.9c-1.4,1.8-2.8,3.6-4.2,5.5
			c-8.2,7.9-24.6,23.2-31.7,25.1c1.5-5.1,18.5-33.3,23.5-32.8c1,0.1,1.6,0.7,1.6,0.2c0-3.1-5-8-7.8-8c-0.5,0-1.2,0.1-1.9,0.7
			c-4.5,3.6-12.2,13.8-18.1,23.3c-8,7.3-17.4,15.3-22.4,16.7c0.4-5.8,19.3-31.9,22.5-34.4c1.5-1.4-2.5-8-5.3-8
			c-4.2,0-25.5,14.9-39.6,29.8c10-19.9,29.5-46.1,41.6-59.8c4.7-5.3,8.4-7.9,10.9-6.7c2.4,1.4-2.5-5.9-9.4-5.9c-1,0-2.7,0.7-4.7,2.2
			c-5.3,4.5-11.6,12-15,16.6C336.6,63,325.9,78.1,318,91.3c-6.7,2.1-15.7,5.5-25.7,11.2c-1.2-1.1-4.2-3.1-3.7-5.2
			c1.6-5.8,20.8-17.6,26.5-17.1c-0.2,2.5-8.5,11.1-8.9,11.1c-0.1,0,0.1,0.5,0.2,0.5c3.3,0,11.1-7.4,11.3-9.2
			c0.4-3.6-1.2-9.3-4.7-9.3c-10.9,0-28.7,9.3-30.7,18.7c-1.1,5.4,6.2,9.9,7.6,11.6c-4.3,1.7-22.5,12.1-22.9,17.5c0.6,2.7,2,5,4.7,5
			c8,0,24.4-6.6,26.1-14.6c0.4-2.6-2.7-6.2-4.3-7.4c6.4-3.8,15.4-7.3,22.9-9.9c-2.7,4.7-5,9-6.7,12.8c-3.7,8.2-4,12.1-3.6,13.1
			c0.9,2,3.6,4.6,4.5,5c1.2,0.7,2.6,1.2,4.1,0.6c-2.8-0.4-3.1-2.1-2-4.6c1.2-3,4-6.7,7.7-10.6c0,0,5-5.2,6.2-6.3
			c8.9-8.4,19.4-16,26.7-19.3c-6.4,5.8-19.7,25.6-19.7,32.7c0,2.2,2.8,6.6,5.3,7.4c0.9,0.2,1.4,0.1,1.9,0c1.4-0.4,3.2-1.2,4.2-1.9
			c4.8-2.8,11-8.3,17.2-14.2c-2.3,4.4-3.8,8.1-3.8,10.2c0,2.2,3.1,5.3,5.1,5.9c0.6,0.1,1,0.1,1.5,0.1c5.9-0.5,18.7-12.3,29.2-23.1
			c-16.5,23.3-31.6,46.1-33.7,63.2c-1,7.6,4.6,12.1,10.3,9.9c-2.8-0.4-2.8-2.8-2.2-5.9c3.1-18.3,18.6-38.4,30.6-55.6
			c21.5-22.7,41.5-32.6,43.3-32.6c-1.5,6.9-23.8,39-36.3,39c-2.6,0-4.7-2.4-4.7-3.6c0-0.4-0.6-0.1-0.6,0.5c0,4.1,5.7,7.2,10.5,7.2
			c17,0,41.2-29.7,41.2-40.9C452.5,81.3,448.2,76.6,446.6,76z M270.1,119.8c3.6-3.6,12.8-9.8,20.2-14
			C290.3,110.5,275,118.4,270.1,119.8z"/>
	</g>
	<g>
		<g>
			<path class="st2" d="M5,42.9c2.6-4.3,10.8-8.3,17.2-6.1c1.7,0.6,3.5,1,5.4,0.8c1.4-0.1,2.4-0.8,3.3-2.2
				c-4.8,0.6-9.3-0.6-12.5-3.4c1.4,0,4.6-0.3,6.5-0.7c3.4-0.7,4.9-1.6,7.8-2.1c6.3-1.2,11.8,0.4,16,5.1c2.8,3.1,2.6,7.7,0,11
				c-3.6,4.4-8.1,5.6-14,3.8c-4.4-1.3-8.3-3.7-12.4-5.6c-3.8-1.8-7.8-2.9-12.1-2.3C8.4,41.5,6.8,42.1,5,42.9z"/>
		</g>
		<g>
			<path class="st1" d="M174.5,40.3c2.1,2.9,4.2,5.9,6.2,8.8c0.2,0.2,0.5,0.4,0.4,0.7c-0.2,0.4-0.6,0.2-0.9,0.2c-18.7,0-37.3,0-56,0
				c-0.6,0-1-0.1-1.4-0.6c-2-2.9-4.1-5.7-6.1-8.6c-0.1-0.1-0.1-0.3-0.2-0.5c2.7,0,5.5,0,8.2,0C141.4,40.2,158,40.3,174.5,40.3z"/>
			<path class="st3" d="M174.5,40.3c-16.6,0-33.1,0-49.7,0c-2.7,0-5.5,0-8.2,0c1.6-2.8,3.7-5.3,5.3-8c0.8-1.3,1.7-1.6,3.2-1.6
				c18.2,0.1,36.5,0.1,54.7,0.1c0.4,0,0.8,0,1.4,0C178.9,34,176.7,37.1,174.5,40.3z"/>
			<path class="st4" d="M113.9,40.2c2.2,3.2,4.5,6.4,6.7,9.5c-0.3,0.3-0.6,0.2-0.8,0.2c-17.1,0-34.2,0-51.4,0c-1,0-1.3-0.2-1.3-1.2
				c0.1-2.8,0.1-5.7,0.1-8.5C82.7,40.2,98.3,40.2,113.9,40.2z"/>
			<path class="st1" d="M113.9,40.2c-15.6,0-31.1,0-46.7,0c-0.2-3,0-6-0.1-9c0-0.4,0.1-0.6,0.6-0.6c0.2,0,0.4,0,0.5,0
				c17.1,0,34.1,0,51.2,0c0.3,0,0.6,0,1.2,0C118.2,34,116,37.1,113.9,40.2z"/>
			<path class="st5" d="M205.4,41.9c-2,1.1-4.3,1.7-6.4,2.5c-4.7,1.8-9.4,3.4-14.2,5.2c-0.7,0.3-1.1,0.2-1.5-0.4
				c-1.9-2.8-3.9-5.5-5.9-8.2c-0.3-0.4-0.3-0.8-0.1-1.2c1.9-2.8,3.8-5.6,5.8-8.5c0.3-0.5,0.6-0.6,1.2-0.4c6.1,2.3,12.1,4.5,18.2,6.7
				c1,0.4,2.1,0.6,3,1.2C204.5,39.8,204.3,40.8,205.4,41.9z"/>
			<path class="st6" d="M52.9,40.3c0-2,0-4.1,0-6.1c0-0.8,0.2-1,1-1c3.3,0,6.6,0,9.9,0c0.8,0,1,0.3,1,1.1c0,4,0,8.1,0,12.1
				c0,0.8-0.3,0.9-1,0.9c-3.3,0-6.7,0-10,0c-0.7,0-1-0.2-1-0.9C53,44.3,52.9,42.3,52.9,40.3z M57.8,36.4c0,1.7,0,1.7,1.4,1.7
				c2,0,1.9,0.2,1.9-1.2c0-2.3,0.3-2.1-1.4-2.1C57.6,34.8,57.9,34.5,57.8,36.4z M57.8,44.2c0,1.6,0,1.6,1.3,1.6c2,0,2,0,2-1.3
				c0-1.9,0-1.9-1.3-1.9C57.8,42.6,57.8,42.6,57.8,44.2z"/>
			<path class="st6" d="M205.4,41.9c-1.1-1.1-1-2.2,0.1-3.2c1.3,0.4,2.6,0.9,3.9,1.3c0.1,0,0.2,0.1,0.5,0.3
				C208.4,40.9,207,41.6,205.4,41.9z"/>
			<path class="st7" d="M57.8,36.4c0-1.9-0.2-1.6,1.9-1.6c1.7,0,1.4-0.2,1.4,2.1c0,1.5,0.1,1.2-1.9,1.2
				C57.8,38.1,57.8,38.1,57.8,36.4z"/>
			<path class="st7" d="M57.8,44.2c0-1.6,0-1.6,2-1.6c1.3,0,1.3,0,1.3,1.9c0,1.3,0,1.3-2,1.3C57.8,45.8,57.8,45.8,57.8,44.2z"/>
		</g>
		<g>
			<path class="st8" d="M3.6,44.4c2.6-4.3,10.8-8.3,17.2-6.1c1.7,0.6,3.5,1,5.4,0.8c1.4-0.1,2.4-0.8,3.3-2.2c-4.8,0.6-8-2.2-11.2-5
				c1.4,0,2.8,0.4,4.2,0.3c3-0.1,5.8-1,8.7-1.5c6.3-1.2,11.8,0.4,16,5.1c2.8,3.1,2.6,7.7,0,11c-3.6,4.4-8.1,5.6-14,3.8
				c-4.4-1.3-8.3-3.7-12.4-5.6c-3.8-1.8-7.8-2.9-12.1-2.3C7,43,5.5,43.7,3.6,44.4z"/>
		</g>
		<path class="st9" d="M49.4,40.1c0,0-3.3-4.5-5.3-5.9c-2-1.3-4.6-2.2-7-1.6c-2.4,0.6-3.6,2.9-2.9,4.8c0.6,1.8,2.8,2.7,2.8,2.7
			s-2.2,1.1-2.8,2.9c-0.7,1.9,0.5,4.2,2.9,4.8c2.4,0.6,5-0.3,7-1.6C46.1,44.8,49.4,40.1,49.4,40.1z"/>
		<path class="st1" d="M49.4,40c0,0-2.5-3.3-3.9-4.3c-1.5-1-3.4-1.6-5.2-1.2c-1.8,0.4-2.7,2.1-2.2,3.5c0.5,1.4,2.1,2,2.1,2
			s-1.6,0.8-2.1,2.2c-0.5,1.4,0.4,3.1,2.2,3.5c1.8,0.4,3.7-0.2,5.2-1.2C46.9,43.5,49.4,40,49.4,40z"/>
	</g>
</g>
<g>
	<path class="st9" d="M32.4,141.5h-1.1l-3.7,8.8l0,0h1.6l1-2.6h3.2l1,2.5l0,0h1.6L32.4,141.5L32.4,141.5z M30.7,146.4l1.2-2.8
		l1.1,2.8H30.7z"/>
	<path class="st9" d="M51.8,144.4c0-1.4-1.1-2.9-2.8-2.9h-3.7v8.9h1.5v-3h2.3C50.8,147.3,51.8,145.8,51.8,144.4z M49.1,145.9h-2.3
		v-3H49c0.7,0,1.3,0.7,1.3,1.5C50.3,145.1,49.9,145.9,49.1,145.9z"/>
	<path class="st9" d="M58.9,141.5L58.9,141.5l-1.1,0l-3.7,8.8l0,0h1.6l1-2.6h3.2l1,2.5l0,0h1.6L58.9,141.5z M57.2,146.4l1.2-2.8
		l1.1,2.8H57.2z"/>
	<path class="st9" d="M71,147c1-0.4,1.6-1.5,1.6-2.6c0-1.4-1.1-2.9-2.8-2.9h-3.8v8.9h1.5v-3h1.9l1.9,3l0,0h1.7L71,147z M69.9,145.9
		h-2.3v-3h2.3c0.7,0,1.3,0.7,1.3,1.5C71.1,145.1,70.6,145.9,69.9,145.9z"/>
	<polygon class="st9" points="78.7,150.3 80.2,150.3 80.2,142.9 83.1,142.9 83.1,141.5 75.8,141.5 75.8,142.9 78.7,142.9 	"/>
	<polygon class="st9" points="94.3,141.5 92.8,141.5 92.8,147.6 88,141.5 88,141.5 86.8,141.5 86.8,150.3 88.3,150.3 88.3,144.3 
		93.1,150.3 94.3,150.3 	"/>
	<polygon class="st9" points="105,148.9 100.4,148.9 100.4,146.5 104.4,146.5 104.4,145.1 100.4,145.1 100.4,142.9 104.9,142.9 
		104.9,141.5 98.9,141.5 98.9,150.3 105,150.3 	"/>
	<path class="st9" d="M114.4,150.3L114.4,150.3l1.7,0L114,147c1-0.4,1.6-1.5,1.6-2.6c0-1.4-1.1-2.9-2.8-2.9h-3.8v8.9h1.5v-3h1.9
		L114.4,150.3z M110.6,142.9h2.3c0.7,0,1.3,0.7,1.3,1.5c0,0.8-0.5,1.5-1.2,1.5h-2.3V142.9z"/>
	<path class="st9" d="M123,145.2c-1.6-0.4-2-0.6-2-1.2c0-0.3,0-1.2,1.7-1.2c0.8,0,1.5,0.3,2,0.8l0.3,0.4l0.8-1.3l0,0l-0.2-0.2
		c-0.8-0.7-1.7-1-2.8-1c-2,0-3.3,1-3.3,2.7c0,1.7,1.3,2.1,2.9,2.5c1.7,0.4,2.2,0.7,2.2,1.4c0,0.9-0.9,1.1-1.7,1.1
		c-1.2,0-2.2-0.5-2.6-1l-0.3-0.3l-0.8,1.3l0,0l0.2,0.2c1,0.8,2.1,1.3,3.5,1.3c2.1,0,3.3-1,3.3-2.6C126.1,146,124.6,145.5,123,145.2z
		"/>
	<polygon class="st9" points="131.5,146.5 135.6,146.5 135.6,150.3 137.1,150.3 137.1,141.5 135.6,141.5 135.6,145.1 131.5,145.1 
		131.5,141.5 130,141.5 130,150.3 131.5,150.3 	"/>
	<rect x="141.7" y="141.5" class="st9" width="1.5" height="8.8"/>
	<path class="st9" d="M151.4,141.5h-3.7v8.9h1.5v-3h2.3c1.7,0,2.7-1.5,2.7-2.9C154.2,143,153.1,141.5,151.4,141.5z M151.4,145.9
		h-2.3v-3h2.2c0.7,0,1.3,0.7,1.3,1.5C152.7,145.1,152.2,145.9,151.4,145.9z"/>
	<polygon class="st9" points="169.1,145.2 165.3,145.2 165.3,142.9 169.8,142.9 169.8,141.5 163.8,141.5 163.8,150.3 165.3,150.3 
		165.3,146.5 169.1,146.5 	"/>
	<path class="st9" d="M177.1,141.4c-2.3,0-4.2,2-4.2,4.5c0,2.2,1.6,4.5,4.2,4.5c2.3,0,4.2-2,4.2-4.5
		C181.3,143.7,179.6,141.4,177.1,141.4z M177.1,149c-1.7,0-2.7-1.6-2.7-3.1c0-1.5,1-3.1,2.7-3.1c1.7,0,2.7,1.6,2.7,3.1
		C179.8,147.4,178.8,149,177.1,149z"/>
	<path class="st9" d="M186.8,147.3h1.9l1.9,3l0,0h1.7l-2.1-3.3c1-0.4,1.6-1.5,1.6-2.6c0-1.4-1.1-2.9-2.8-2.9h-3.8v8.9h1.5V147.3z
		 M186.8,142.9h2.3c0.7,0,1.3,0.7,1.3,1.5c0,0.8-0.5,1.5-1.2,1.5h-2.3V142.9z"/>
	<polygon class="st9" points="207.8,145.1 203.7,145.1 203.7,141.5 202.2,141.5 202.2,150.3 203.7,150.3 203.7,146.5 207.8,146.5 
		207.8,150.3 209.3,150.3 209.3,141.5 207.8,141.5 	"/>
	<rect x="213.8" y="141.5" class="st9" width="1.5" height="8.8"/>
	<path class="st9" d="M225.7,149.6v0.7h1.4v-4.7h-3.2v1.3h1.8v0.9c-0.7,0.8-1.4,1.1-2.2,1.1c-1.5,0-2.7-1.4-2.7-3.1
		c0-1.5,1-3.1,2.6-3.1c1,0,1.8,0.4,2.2,1.3l0.2,0.3l1.2-0.8l-0.1-0.3c-0.7-1.3-1.8-2-3.4-2c-2.3,0-4.1,2-4.1,4.5
		c0,2.2,1.7,4.5,4.2,4.5C224.3,150.4,225.1,150.1,225.7,149.6z"/>
	<polygon class="st9" points="232.8,146.5 236.9,146.5 236.9,150.3 238.4,150.3 238.4,141.5 236.9,141.5 236.9,145.1 232.8,145.1 
		232.8,141.5 231.3,141.5 231.3,150.3 232.8,150.3 	"/>
	<polygon class="st9" points="249.1,148.9 244.4,148.9 244.4,146.5 248.4,146.5 248.4,145.1 244.4,145.1 244.4,142.9 249,142.9 
		249,141.5 243,141.5 243,150.3 249.1,150.3 	"/>
	<path class="st9" d="M254.6,147.3h1.9l1.9,3l0,0h1.7l-2.1-3.3c1-0.4,1.6-1.5,1.6-2.6c0-1.4-1.1-2.9-2.8-2.9h-3.8v8.9h1.5V147.3z
		 M254.6,142.9h2.3c0.7,0,1.3,0.7,1.3,1.5c0,0.8-0.5,1.5-1.2,1.5h-2.3V142.9z"/>
	<polygon class="st9" points="30.1,164.9 34.1,164.9 34.1,163.5 30.1,163.5 30.1,161.3 34.7,161.3 34.7,159.9 28.6,159.9 
		28.6,168.7 34.8,168.7 34.8,167.3 30.1,167.3 	"/>
	<path class="st9" d="M41.9,159.9h-3.1v8.9h3.1c2.6,0,4.3-1.7,4.3-4.4C46.2,161.6,44.5,159.9,41.9,159.9z M41.9,167.3h-1.6v-6h1.6
		c1.7,0,2.8,1.2,2.8,3C44.7,165.7,44,167.3,41.9,167.3z"/>
	<path class="st9" d="M56.2,164.3c0,1.4-0.4,3-2.3,3c-1.9,0-2.3-1.6-2.3-3v-4.5h-1.5v4.5c0,2.8,1.4,4.5,3.8,4.5
		c2.4,0,3.8-1.7,3.8-4.5v-4.5h-1.5V164.3z"/>
	<path class="st9" d="M68.1,165.7L68,166c-0.5,1-1.5,1.3-2.2,1.3c-1.5,0-2.7-1.4-2.7-3.1c0-1.5,0.9-3,2.7-3c0.5,0,1.6,0.1,2.1,1.3
		l0.1,0.3l0,0l1.2-0.7l0,0l-0.1-0.3c-0.6-1.2-1.8-2-3.3-2c-2.6,0-4.2,2.2-4.2,4.4c0,2.2,1.7,4.6,4.2,4.6c1.3,0,2.9-0.7,3.5-2.1
		l0.1-0.3L68.1,165.7L68.1,165.7z"/>
	<path class="st9" d="M76.8,159.9h-1.1l-3.7,8.8l0,0h1.6l1-2.6h3.2l1,2.5l0,0h1.6L76.8,159.9L76.8,159.9z M75.1,164.8l1.2-2.8
		l1.1,2.8H75.1z"/>
	<polygon class="st9" points="82.4,161.3 85.3,161.3 85.3,168.7 86.8,168.7 86.8,161.3 89.7,161.3 89.7,159.9 82.4,159.9 	"/>
	<rect x="93.4" y="159.9" class="st9" width="1.5" height="8.8"/>
	<path class="st9" d="M103.1,159.8c-2.3,0-4.2,2-4.2,4.5c0,2.2,1.6,4.5,4.2,4.5c2.3,0,4.2-2,4.2-4.5
		C107.3,162.1,105.6,159.8,103.1,159.8z M103.1,167.3c-1.7,0-2.7-1.6-2.7-3.1c0-1.5,1-3.1,2.7-3.1s2.7,1.6,2.7,3.1
		C105.8,165.8,104.7,167.3,103.1,167.3z"/>
	<polygon class="st9" points="117.3,166 112.4,159.9 112.4,159.9 111.3,159.9 111.3,168.7 112.8,168.7 112.8,162.7 117.6,168.7 
		118.8,168.7 118.8,159.9 117.3,159.9 	"/>
	<path class="st9" d="M135.9,164.3l0-0.3h-1.4v0.3c0,0.5-0.1,1-0.3,1.4l-1.6-1.7c0.8-0.5,1.6-1.2,1.6-2.3c0-1.1-1-2-2.3-2
		c-1.3,0-2.4,0.9-2.4,2.1c0,0.7,0.4,1.2,0.9,1.9c-0.8,0.6-1.6,1.3-1.6,2.5c0,1.5,1.3,2.6,2.9,2.6c0.9,0,1.8-0.3,2.5-1l0.8,0.8l0,0h2
		l-1.9-2C135.6,166,135.9,165.2,135.9,164.3z M131.9,161.1c0.5,0,0.8,0.3,0.8,0.7c0,0.4-0.4,0.7-1.1,1.2c-0.6-0.6-0.7-0.9-0.7-1.1
		C131,161.4,131.4,161.1,131.9,161.1z M132,167.5c-0.8,0-1.6-0.4-1.6-1.2c0-0.5,0.3-1,1-1.5l2,2.1C133,167.3,132.5,167.5,132,167.5z
		"/>
	<path class="st9" d="M149.6,163.6c-1.6-0.4-2-0.6-2-1.2c0-0.3,0-1.2,1.7-1.2c0.8,0,1.5,0.3,2,0.8l0.3,0.4l0.8-1.3l-0.2-0.2
		c-0.8-0.7-1.7-1-2.8-1c-2,0-3.3,1-3.3,2.7c0,1.7,1.3,2.1,2.9,2.5c1.7,0.4,2.2,0.7,2.2,1.3c0,0.9-0.9,1.1-1.7,1.1
		c-1.2,0-2.2-0.5-2.6-1l-0.3-0.3l-0.8,1.3l0,0l0.2,0.2c1,0.8,2.1,1.3,3.5,1.3c2.1,0,3.3-1,3.3-2.6
		C152.7,164.4,151.2,163.9,149.6,163.6z"/>
	<path class="st9" d="M160.3,159.8c-2.3,0-4.2,2-4.2,4.5c0,2.2,1.6,4.5,4.2,4.5c2.3,0,4.2-2,4.2-4.5
		C164.4,162.1,162.8,159.8,160.3,159.8z M160.3,167.3c-1.7,0-2.7-1.6-2.7-3.1c0-1.5,1-3.1,2.7-3.1s2.7,1.6,2.7,3.1
		C162.9,165.8,161.9,167.3,160.3,167.3z"/>
	<path class="st9" d="M174.5,165.7l-0.2,0.3c-0.5,1-1.5,1.3-2.2,1.3c-1.5,0-2.7-1.4-2.7-3.1c0-1.5,0.9-3,2.7-3
		c0.5,0,1.6,0.1,2.1,1.3l0.1,0.3l0,0l1.2-0.7l0,0l-0.1-0.3c-0.6-1.2-1.8-2-3.3-2c-2.6,0-4.2,2.2-4.2,4.4c0,2.2,1.7,4.6,4.2,4.6
		c1.3,0,2.9-0.7,3.5-2.1l0.1-0.3L174.5,165.7L174.5,165.7z"/>
	<rect x="179.5" y="159.9" class="st9" width="1.5" height="8.8"/>
	<path class="st9" d="M189.3,159.9h-1.1l-3.7,8.8l0,0h1.6l1-2.6h3.2l1,2.5l0,0h1.6L189.3,159.9L189.3,159.9z M187.6,164.8l1.2-2.8
		l1.1,2.8H187.6z"/>
	<polygon class="st9" points="198,159.9 196.5,159.9 196.5,168.7 202.7,168.7 202.7,167.3 198,167.3 	"/>
	<path class="st9" d="M218.8,162.8c0-1.4-1.1-2.9-2.8-2.9h-3.8v8.9h1.5v-3h1.9l1.9,3l0,0h1.7l-2.1-3.3
		C218.2,165,218.8,163.9,218.8,162.8z M216.1,164.3h-2.3v-3h2.3c0.7,0,1.3,0.7,1.3,1.5C217.3,163.5,216.8,164.3,216.1,164.3z"/>
	<polygon class="st9" points="224.5,164.9 228.5,164.9 228.5,163.5 224.5,163.5 224.5,161.3 229.1,161.3 229.1,159.9 223,159.9 
		223,168.7 229.2,168.7 229.2,167.3 224.5,167.3 	"/>
	<path class="st9" d="M236.2,163.6c-1.6-0.4-2-0.6-2-1.2c0-0.3,0-1.2,1.7-1.2c0.8,0,1.5,0.3,2,0.8l0.3,0.4l0.8-1.3l0,0l-0.2-0.2
		c-0.8-0.7-1.7-1-2.8-1c-2,0-3.3,1-3.3,2.7c0,1.7,1.3,2.1,2.9,2.5c1.7,0.4,2.2,0.7,2.2,1.3c0,0.9-0.9,1.1-1.7,1.1
		c-1.2,0-2.2-0.5-2.6-1l-0.3-0.3l-0.8,1.3l0,0l0.2,0.2c1,0.8,2.1,1.3,3.5,1.3c2.1,0,3.3-1,3.3-2.6
		C239.3,164.4,237.8,163.9,236.2,163.6z"/>
	<path class="st9" d="M247,159.9h-3.7v8.9h1.5v-3h2.3c1.7,0,2.7-1.5,2.7-2.9C249.8,161.4,248.6,159.9,247,159.9z M247,164.3h-2.3v-3
		h2.2c0.7,0,1.3,0.7,1.3,1.5C248.3,163.5,247.8,164.3,247,164.3z"/>
	<path class="st9" d="M257.2,159.8c-2.3,0-4.2,2-4.2,4.5c0,2.2,1.6,4.5,4.2,4.5c2.3,0,4.2-2,4.2-4.5
		C261.4,162.1,259.7,159.8,257.2,159.8z M257.2,167.3c-1.7,0-2.7-1.6-2.7-3.1c0-1.5,1-3.1,2.7-3.1s2.7,1.6,2.7,3.1
		C259.9,165.8,258.9,167.3,257.2,167.3z"/>
	<polygon class="st9" points="271.4,166 266.6,159.9 266.5,159.9 265.4,159.9 265.4,168.7 266.9,168.7 266.9,162.7 271.7,168.7 
		272.9,168.7 272.9,159.9 271.4,159.9 	"/>
	<path class="st9" d="M280.6,163.6c-1.6-0.4-2-0.6-2-1.2c0-0.3,0-1.2,1.7-1.2c0.8,0,1.5,0.3,2,0.8l0.3,0.4l0.8-1.3l0,0l-0.2-0.2
		c-0.8-0.7-1.7-1-2.8-1c-2,0-3.3,1-3.3,2.7c0,1.7,1.3,2.1,2.9,2.5c1.7,0.4,2.2,0.7,2.2,1.3c0,0.9-0.9,1.1-1.7,1.1
		c-1.2,0-2.2-0.5-2.6-1l-0.3-0.3l-0.8,1.3l0,0l0.2,0.2c1,0.8,2.1,1.3,3.5,1.3c2.1,0,3.3-1,3.3-2.6
		C283.7,164.4,282.2,163.9,280.6,163.6z"/>
	<rect x="287.7" y="159.9" class="st9" width="1.5" height="8.8"/>
	<path class="st9" d="M299.3,164.1c0.5-0.5,0.8-1.1,0.8-1.8c0-1.2-0.8-2.4-2.2-2.4h-4.3v8.9h4.2c1.5,0,2.6-1.1,2.6-2.5
		C300.5,165.4,300.1,164.6,299.3,164.1z M295.2,161.2h2.5c0.6,0,1,0.5,1,1.2c0,0.6-0.5,1.2-1.1,1.2h-2.5V161.2z M297.9,167.3h-2.7
		v-2.4h2.8c0.6,0,1.1,0.6,1.1,1.2C299,166.8,298.5,167.3,297.9,167.3z"/>
	<rect x="304.5" y="159.9" class="st9" width="1.5" height="8.8"/>
	<polygon class="st9" points="312,159.9 310.5,159.9 310.5,168.7 316.7,168.7 316.7,167.3 312,167.3 	"/>
	<polygon class="st9" points="318.3,161.3 321.3,161.3 321.3,168.7 322.8,168.7 322.8,161.3 325.7,161.3 325.7,159.9 318.3,159.9 	
		"/>
	<polygon class="st9" points="334.8,159.9 332.3,163.9 329.9,159.9 329.9,159.9 328.2,159.9 331.6,165.4 331.6,168.7 333.1,168.7 
		333.1,165.4 336.5,159.9 	"/>
</g>
<g>
	<path class="st0" d="M28.6,4.1h5.1c4.1,0,7,2.8,7,6.5v0c0,3.7-2.9,6.6-7,6.6h-5.1V4.1z M33.8,14.7c2.4,0,4-1.6,4-3.9v0
		c0-2.3-1.6-4-4-4h-2.2v7.9H33.8z"/>
	<path class="st0" d="M43.7,4.1h9.9v2.6h-7.1v2.7h6.2v2.6h-6.2v2.8h7.2v2.6h-10V4.1z"/>
	<path class="st0" d="M55.8,15.4l1.7-2.1c1.2,1,2.4,1.6,3.9,1.6c1.2,0,1.9-0.5,1.9-1.2v0c0-0.7-0.5-1.1-2.7-1.7
		c-2.7-0.7-4.4-1.4-4.4-4v0c0-2.4,1.9-4,4.6-4c1.9,0,3.6,0.6,4.9,1.7l-1.5,2.2C63.2,7,62,6.5,60.9,6.5c-1.1,0-1.7,0.5-1.7,1.1v0
		c0,0.9,0.6,1.1,2.8,1.7c2.7,0.7,4.2,1.7,4.2,4v0c0,2.6-2,4.1-4.8,4.1C59.4,17.5,57.4,16.8,55.8,15.4z"/>
	<path class="st0" d="M69.3,4.1h2.9v13.2h-2.9V4.1z"/>
	<path class="st0" d="M75.2,10.7L75.2,10.7c0-3.8,2.9-6.8,6.9-6.8c2.4,0,3.8,0.6,5.2,1.8l-1.8,2.2c-1-0.8-1.9-1.3-3.4-1.3
		c-2.1,0-3.8,1.9-3.8,4.1v0c0,2.4,1.7,4.2,4,4.2c1.1,0,2-0.3,2.7-0.8v-1.9h-2.9V9.7h5.7v5.7c-1.4,1.1-3.2,2.1-5.6,2.1
		C78.1,17.5,75.2,14.6,75.2,10.7z"/>
	<path class="st0" d="M91,4.1h2.7l6.2,8.1V4.1h2.9v13.2h-2.5l-6.4-8.4v8.4H91V4.1z"/>
	<path class="st0" d="M118.1,14.4h-6.4l-0.5-2.1l7.2-8.4h2.4v8.1h1.8v2.4h-1.8v2.8h-2.8V14.4z M118.1,12.1V8l-3.5,4.1H118.1z"/>
	<path class="st0" d="M131.5,14.4H125l-0.5-2.1l7.2-8.4h2.4v8.1h1.8v2.4h-1.8v2.8h-2.8V14.4z M131.5,12.1V8l-3.5,4.1H131.5z"/>
	<path class="st0" d="M139.9,16.1c-1-1-1.6-2.4-1.6-5v0c0-4.1,1.8-7.2,5.8-7.2c1.8,0,3,0.5,4.1,1.4l-1.5,2.2
		c-0.9-0.7-1.6-1.1-2.7-1.1c-1.6,0-2.5,1.3-2.7,3c0.7-0.4,1.4-0.8,2.7-0.8c2.6,0,4.6,1.4,4.6,4.2v0c0,2.7-2.2,4.6-5,4.6
		C142,17.5,140.8,17,139.9,16.1z M145.8,13.1L145.8,13.1c0-1.1-0.9-2-2.3-2c-1.4,0-2.3,0.8-2.3,1.9v0c0,1.1,0.9,2,2.3,2
		C145,15,145.8,14.2,145.8,13.1z"/>
</g>
</svg>
