<svg xmlns="http://www.w3.org/2000/svg" viewBox="0 0 365.67 518.02"><defs><style>.a{font-size:11px;fill:#fff;font-family:Gotham-Bold, Gotham;font-weight:700;}</style></defs><title>Asset 1</title><text class="a" transform="matrix(0.21, -0.98, 0.98, 0.21, 16.82, 186.25)">I</text><text class="a" transform="translate(17.61 182.47) rotate(-76.57)">M</text><text class="a" transform="matrix(0.26, -0.97, 0.97, 0.26, 19.88, 173.03)">P</text><text class="a" transform="translate(21.6 166.52) rotate(-73.72)">A</text><text class="a" transform="translate(23.94 158.51) rotate(-72.25)">C</text><text class="a" transform="translate(26.47 150.65) rotate(-70.8)">T</text><text class="a" transform="translate(28.81 143.92) rotate(-69.45)">S</text><text class="a" transform="translate(31.33 137.18) rotate(-67.92)">H</text><text class="a" transform="translate(34.56 129.3) rotate(-66.69)">I</text><text class="a" transform="translate(36.07 125.76) rotate(-65.53)">P</text><text class="a" transform="translate(39.2 118.93) rotate(-64.4)"> </text><text class="a" transform="translate(40.69 115.8) rotate(-63.43)">•</text><text class="a" transform="matrix(0.46, -0.89, 0.89, 0.46, 43.24, 110.72)"> </text><text class="a" transform="matrix(0.48, -0.88, 0.88, 0.48, 44.81, 107.64)">D</text><text class="a" transform="translate(49.05 100) rotate(-59.28)">E</text><text class="a" transform="matrix(0.54, -0.84, 0.84, 0.54, 52.89, 93.54)">S</text><text class="a" transform="matrix(0.56, -0.83, 0.83, 0.56, 56.76, 87.48)">I</text><text class="a" transform="translate(58.87 84.28) rotate(-54.68)">G</text><text class="a" transform="translate(63.94 77.11) rotate(-52.42)">N</text><text class="a" transform="matrix(0.63, -0.77, 0.77, 0.63, 69.35, 70.15)"> </text><text class="a" transform="translate(71.52 67.45) rotate(-49.26)">4</text><text class="a" transform="matrix(0.68, -0.73, 0.73, 0.68, 76.55, 61.61)">4</text><text class="a" transform="matrix(0.71, -0.7, 0.7, 0.71, 81.8, 55.98)">6</text><text class="a" transform="translate(87.09 50.76) rotate(-43.14)"> </text><text class="a" transform="translate(89.59 48.4) rotate(-41.7)">•</text><text class="a" transform="matrix(0.76, -0.65, 0.65, 0.76, 93.83, 44.65)"> </text><text class="a" transform="translate(96.46 42.42) rotate(-38.99)">I</text><text class="a" transform="matrix(0.8, -0.6, 0.6, 0.8, 99.41, 39.96)">M</text><text class="a" transform="matrix(0.83, -0.55, 0.55, 0.83, 107.18, 34.22)">P</text><text class="a" transform="translate(112.73 30.49) rotate(-30.81)">A</text><text class="a" transform="translate(119.84 26.25) rotate(-27.67)">C</text><text class="a" transform="translate(127.14 22.44) rotate(-24.51)">T</text><text class="a" transform="translate(133.58 19.5) rotate(-21.53)">S</text><text class="a" transform="matrix(0.95, -0.31, 0.31, 0.95, 140.21, 16.87)">H</text><text class="a" transform="matrix(0.96, -0.27, 0.27, 0.96, 148.28, 14.28)">I</text><text class="a" transform="translate(151.92 13.24) rotate(-12.83)">P</text><text class="a" transform="matrix(0.98, -0.18, 0.18, 0.98, 159.22, 11.63)"> </text><text class="a" transform="translate(162.6 10.99) rotate(-8.21)">•</text><text class="a" transform="translate(168.17 10.21) rotate(-6.1)"> </text><text class="a" transform="matrix(1, -0.06, 0.06, 1, 171.56, 9.79)">D</text><text class="a" transform="matrix(1, 0.02, -0.02, 1, 180.2, 9.26)">E</text><text class="a" transform="translate(187.69 9.39) rotate(3.91)">S</text><text class="a" transform="translate(194.83 9.92) rotate(6.48)">I</text><text class="a" transform="translate(198.62 10.29) rotate(9.4)">G</text><text class="a" transform="translate(207.21 11.71) rotate(13.43)">N</text><text class="a" transform="translate(215.75 13.82) rotate(16.19)"> </text><text class="a" transform="translate(219.05 14.73) rotate(18.67)">4</text><text class="a" transform="translate(226.3 17.19) rotate(21.99)">4</text><text class="a" transform="translate(233.43 20.08) rotate(25.17)">6</text><text class="a" transform="matrix(0.89, 0.46, -0.46, 0.89, 240.12, 23.26)"> </text><text class="a" transform="matrix(0.87, 0.49, -0.49, 0.87, 243.18, 24.84)">•</text><text class="a" transform="translate(248.1 27.6) rotate(30.95)"> </text><text class="a" transform="matrix(0.84, 0.53, -0.53, 0.84, 251.07, 29.39)">I</text><text class="a" transform="matrix(0.82, 0.57, -0.57, 0.82, 254.31, 31.36)">M</text><text class="a" transform="translate(262.22 36.91) rotate(37.84)">P</text><text class="a" transform="matrix(0.76, 0.65, -0.65, 0.76, 267.53, 41)">A</text><text class="a" transform="translate(273.86 46.37) rotate(42.91)">C</text><text class="a" transform="translate(279.91 52.01) rotate(45.3)">T</text><text class="a" transform="matrix(0.68, 0.74, -0.74, 0.68, 284.89, 57.04)">S</text><text class="a" transform="translate(289.75 62.31) rotate(49.59)">H</text><text class="a" transform="matrix(0.63, 0.78, -0.78, 0.63, 295.24, 68.81)">I</text><text class="a" transform="matrix(0.61, 0.8, -0.8, 0.61, 297.66, 71.8)">P</text><text class="a" transform="matrix(0.59, 0.81, -0.81, 0.59, 302.18, 77.79)"> </text><text class="a" transform="matrix(0.57, 0.82, -0.82, 0.57, 304.21, 80.59)">•</text><text class="a" transform="translate(307.42 85.25) rotate(56.44)"> </text><text class="a" transform="matrix(0.53, 0.85, -0.85, 0.53, 309.36, 88.12)">D</text><text class="a" transform="matrix(0.5, 0.86, -0.86, 0.5, 314, 95.54)">E</text><text class="a" transform="translate(317.78 102.04) rotate(61.43)">S</text><text class="a" transform="translate(321.2 108.37) rotate(62.63)">I</text><text class="a" transform="translate(322.99 111.76) rotate(63.97)">G</text><text class="a" transform="matrix(0.41, 0.91, -0.91, 0.41, 326.84, 119.65)">N</text><text class="a" transform="translate(330.44 127.73) rotate(67.04)"> </text><text class="a" transform="matrix(0.37, 0.93, -0.93, 0.37, 331.81, 130.91)">4</text><text class="a" transform="translate(334.67 138.07) rotate(69.65)">4</text><text class="a" transform="translate(337.36 145.33) rotate(71.09)">6</text><text class="a" transform="matrix(0.31, 0.95, -0.95, 0.31, 339.76, 152.39)"> </text><text class="a" transform="translate(340.83 155.69) rotate(72.95)">•</text><text class="a" transform="translate(342.48 161.12) rotate(73.79)"> </text><text class="a" transform="matrix(0.27, 0.96, -0.96, 0.27, 343.45, 164.44)">I</text><text class="a" transform="translate(344.52 168.16) rotate(75.66)">M</text><text class="a" transform="translate(346.9 177.56) rotate(77.16)">P</text><text class="a" transform="translate(348.42 184.14) rotate(78.44)">A</text><text class="a" transform="translate(350.09 192.32) rotate(79.81)">C</text><text class="a" transform="matrix(0.15, 0.99, -0.99, 0.15, 351.54, 200.45)">T</text><text class="a" transform="matrix(0.13, 0.99, -0.99, 0.13, 352.65, 207.49)">S</text><text class="a" transform="translate(353.61 214.61) rotate(83.57)">H</text><text class="a" transform="translate(354.55 223.11) rotate(84.58)">I</text><text class="a" transform="translate(354.93 226.95) rotate(85.5)">P</text><text class="a" transform="matrix(0.06, 1, -1, 0.06, 355.5, 234.45)"> </text><text class="a" transform="translate(355.72 237.9) rotate(87.11)">•</text><text class="a" transform="translate(356 243.57) rotate(87.83)"> </text><text class="a" transform="translate(356.15 247.04) rotate(88.8)">D</text><text class="a" transform="matrix(-0.01, 1, -1, -0.01, 356.36, 255.78)">E</text><text class="a" transform="matrix(-0.02, 1, -1, -0.02, 356.32, 263.34)">S</text><text class="a" transform="matrix(-0.04, 1, -1, -0.04, 356.15, 270.56)">I</text><text class="a" transform="translate(356.02 274.41) rotate(93.11)">G</text><text class="a" transform="translate(355.55 283.17) rotate(94.51)">N</text><text class="a" transform="translate(354.83 291.99) rotate(95.51)"> </text><text class="a" transform="matrix(-0.11, 0.99, -0.99, -0.11, 354.51, 295.44)">4</text><text class="a" transform="translate(353.64 303.14) rotate(97.69)">4</text><text class="a" transform="matrix(-0.16, 0.99, -0.99, -0.16, 352.6, 310.81)">6</text><text class="a" transform="translate(351.43 318.16) rotate(99.86)"> </text><text class="a" transform="translate(350.84 321.59) rotate(100.63)">•</text><text class="a" transform="translate(349.78 327.17) rotate(101.41)"> </text><text class="a" transform="matrix(-0.21, 0.98, -0.98, -0.21, 349.1, 330.57)">I</text><text class="a" transform="matrix(-0.23, 0.97, -0.97, -0.23, 348.32, 334.35)">M</text><text class="a" transform="matrix(-0.25, 0.97, -0.97, -0.25, 346.08, 343.8)">P</text><text class="a" transform="translate(344.39 350.31) rotate(106.06)">A</text><text class="a" transform="translate(342.08 358.32) rotate(107.52)">C</text><text class="a" transform="matrix(-0.33, 0.95, -0.95, -0.33, 339.58, 366.22)">T</text><text class="a" transform="translate(337.27 372.95) rotate(110.32)">S</text><text class="a" transform="translate(334.78 379.69) rotate(111.84)">H</text><text class="a" transform="translate(331.58 387.59) rotate(113.07)">I</text><text class="a" transform="matrix(-0.41, 0.91, -0.91, -0.41, 330.09, 391.13)">P</text><text class="a" transform="translate(326.99 397.98) rotate(115.35)"> </text><text class="a" transform="matrix(-0.44, 0.9, -0.9, -0.44, 325.52, 401.11)">•</text><text class="a" transform="matrix(-0.46, 0.89, -0.89, -0.46, 322.98, 406.21)"> </text><text class="a" transform="translate(321.43 409.28) rotate(118.62)">D</text><text class="a" transform="translate(317.24 416.94) rotate(120.44)">E</text><text class="a" transform="translate(313.42 423.43) rotate(122.15)">S</text><text class="a" transform="matrix(-0.55, 0.83, -0.83, -0.55, 309.57, 429.52)">I</text><text class="a" transform="matrix(-0.57, 0.82, -0.82, -0.57, 307.48, 432.74)">G</text><text class="a" transform="translate(302.45 439.92) rotate(127.25)">N</text><text class="a" transform="translate(297.08 446.91) rotate(128.87)"> </text><text class="a" transform="translate(294.94 449.61) rotate(130.4)">4</text><text class="a" transform="translate(289.93 455.5) rotate(132.59)">4</text><text class="a" transform="translate(284.71 461.17) rotate(134.82)">6</text><text class="a" transform="matrix(-0.73, 0.69, -0.69, -0.73, 279.45, 466.41)"> </text><text class="a" transform="matrix(-0.74, 0.67, -0.67, -0.74, 276.96, 468.8)">•</text><text class="a" transform="translate(272.76 472.57) rotate(139.39)"> </text><text class="a" transform="matrix(-0.77, 0.63, -0.63, -0.77, 270.14, 474.82)">I</text><text class="a" transform="translate(267.21 477.3) rotate(142.91)">M</text><text class="a" transform="matrix(-0.83, 0.56, -0.56, -0.83, 259.49, 483.1)">P</text><text class="a" transform="matrix(-0.85, 0.52, -0.52, -0.85, 253.96, 486.87)">A</text><text class="a" transform="matrix(-0.88, 0.47, -0.47, -0.88, 246.87, 491.18)">C</text><text class="a" transform="translate(239.62 495.04) rotate(154.99)">T</text><text class="a" transform="translate(233.22 498.03) rotate(157.94)">S</text><text class="a" transform="translate(226.63 500.72) rotate(161.32)">H</text><text class="a" transform="matrix(-0.96, 0.27, -0.27, -0.96, 218.58, 503.38)">I</text><text class="a" transform="translate(214.91 504.47) rotate(166.62)">P</text><text class="a" transform="matrix(-0.98, 0.19, -0.19, -0.98, 207.63, 506.15)"> </text><text class="a" transform="translate(204.28 506.82) rotate(171.22)">•</text><text class="a" transform="matrix(-0.99, 0.12, -0.12, -0.99, 198.72, 507.65)"> </text><text class="a" transform="translate(195.32 508.11) rotate(176.17)">D</text><text class="a" transform="matrix(-1, 0.02, -0.02, -1, 186.62, 508.59)">E</text><text class="a" transform="translate(179.19 508.67) rotate(-176.66)">S</text><text class="a" transform="translate(172.05 508.21) rotate(-174.09)">I</text><text class="a" transform="matrix(-0.99, -0.15, 0.15, -0.99, 168.26, 507.88)">G</text><text class="a" transform="translate(159.67 506.55) rotate(-167.14)">N</text><text class="a" transform="matrix(-0.96, -0.27, 0.27, -0.96, 151.08, 504.51)"> </text><text class="a" transform="translate(147.78 503.63) rotate(-161.87)">4</text><text class="a" transform="translate(140.51 501.25) rotate(-158.53)">4</text><text class="a" transform="translate(133.34 498.42) rotate(-155.33)">6</text><text class="a" transform="matrix(-0.89, -0.45, 0.45, -0.89, 126.65, 495.3)"> </text><text class="a" transform="translate(123.58 493.76) rotate(-151.3)">•</text><text class="a" transform="matrix(-0.86, -0.51, 0.51, -0.86, 118.62, 491.02)"> </text><text class="a" transform="matrix(-0.85, -0.53, 0.53, -0.85, 115.66, 489.28)">I</text><text class="a" transform="translate(112.37 487.31) rotate(-145.62)">M</text><text class="a" transform="matrix(-0.79, -0.61, 0.61, -0.79, 104.43, 481.83)">P</text><text class="a" transform="matrix(-0.77, -0.64, 0.64, -0.77, 99.09, 477.78)">A</text><text class="a" transform="translate(92.71 472.45) rotate(-137.48)">C</text><text class="a" transform="translate(86.65 466.87) rotate(-135.07)">T</text><text class="a" transform="matrix(-0.68, -0.73, 0.73, -0.68, 81.61, 461.85)">S</text><text class="a" transform="translate(76.73 456.62) rotate(-130.75)">H</text><text class="a" transform="matrix(-0.63, -0.78, 0.78, -0.63, 71.2, 450.14)">I</text><text class="a" transform="matrix(-0.61, -0.79, 0.79, -0.61, 68.76, 447.17)">P</text><text class="a" transform="matrix(-0.59, -0.81, 0.81, -0.59, 64.21, 441.21)"> </text><text class="a" transform="translate(62.17 438.43) rotate(-124.99)">•</text><text class="a" transform="translate(58.93 433.78) rotate(-123.86)"> </text><text class="a" transform="translate(56.98 430.93) rotate(-122.39)">D</text><text class="a" transform="matrix(-0.51, -0.86, 0.86, -0.51, 52.31, 423.55)">E</text><text class="a" transform="translate(48.5 417.06) rotate(-118.85)">S</text><text class="a" transform="translate(45.04 410.74) rotate(-117.63)">I</text><text class="a" transform="matrix(-0.44, -0.9, 0.9, -0.44, 43.23, 407.35)">G</text><text class="a" transform="translate(39.35 399.48) rotate(-114.45)">N</text><text class="a" transform="translate(35.73 391.43) rotate(-113.2)"> </text><text class="a" transform="translate(34.34 388.24) rotate(-112.09)">4</text><text class="a" transform="translate(31.43 381.06) rotate(-110.58)">4</text><text class="a" transform="translate(28.72 373.83) rotate(-109.14)">6</text><text class="a" transform="translate(26.3 366.81) rotate(-108.12)"> </text><text class="a" transform="matrix(-0.3, -0.95, 0.95, -0.3, 25.21, 363.5)">•</text><text class="a" transform="translate(23.53 358.08) rotate(-106.44)"> </text><text class="a" transform="translate(22.55 354.74) rotate(-105.77)">I</text><text class="a" transform="matrix(-0.25, -0.97, 0.97, -0.25, 21.47, 351.04)">M</text><text class="a" transform="translate(19.05 341.64) rotate(-103.05)">P</text><text class="a" transform="translate(17.52 335.1) rotate(-101.77)">A</text><text class="a" transform="translate(15.81 326.91) rotate(-100.4)">C</text><text class="a" transform="matrix(-0.16, -0.99, 0.99, -0.16, 14.33, 318.77)">T</text><text class="a" transform="translate(13.2 311.74) rotate(-97.91)">S</text><text class="a" transform="matrix(-0.12, -0.99, 0.99, -0.12, 12.21, 304.61)">H</text><text class="a" transform="matrix(-0.1, -1, 1, -0.1, 11.25, 296.15)">I</text><text class="a" transform="translate(10.85 292.29) rotate(-94.7)">P</text><text class="a" transform="translate(10.25 284.8) rotate(-93.82)"> </text><text class="a" transform="matrix(-0.05, -1, 1, -0.05, 10.02, 281.34)">•</text><text class="a" transform="translate(9.72 275.67) rotate(-92.36)"> </text><text class="a" transform="matrix(-0.02, -1, 1, -0.02, 9.56, 272.21)">D</text><text class="a" transform="translate(9.39 263.43) rotate(-90.65)">E</text><text class="a" transform="translate(9.34 255.91) rotate(-88.96)">S</text><text class="a" transform="translate(9.48 248.71) rotate(-88.09)">I</text><text class="a" transform="translate(9.59 244.85) rotate(-87.09)">G</text><text class="a" transform="matrix(0.08, -1, 1, 0.08, 10.04, 236.07)">N</text><text class="a" transform="translate(10.73 227.25) rotate(-84.69)"> </text><text class="a" transform="matrix(0.11, -0.99, 0.99, 0.11, 11.04, 223.79)">4</text><text class="a" transform="translate(11.88 216.1) rotate(-82.52)">4</text><text class="a" transform="translate(12.89 208.42) rotate(-81.26)">6</text><text class="a" transform="translate(14.04 201.05) rotate(-80.34)"> </text><text class="a" transform="translate(14.61 197.64) rotate(-79.57)">•</text><text class="a" transform="matrix(0.19, -0.98, 0.98, 0.19, 15.65, 192.05)"> </text></svg>