<svg xmlns="http://www.w3.org/2000/svg" viewBox="0 0 162.21 48.73"><defs><style>.a,.b{fill:#fff;}.b{fill-rule:evenodd;}</style></defs><title>Asset 2</title><path class="a" d="M2.37,37.77h8.68v1.12H3.74v3.85h6.53v1.11H3.74v4.69H2.37Z"/><path class="a" d="M12.91,43.18v0c0-3,2.5-5.57,6.17-5.57s6.14,2.57,6.14,5.54v0c0,3-2.5,5.58-6.17,5.58S12.91,46.16,12.91,43.18Zm10.9,0v0a4.53,4.53,0,0,0-4.76-4.44,4.48,4.48,0,0,0-4.72,4.41v0a4.53,4.53,0,0,0,4.75,4.45A4.49,4.49,0,0,0,23.81,43.18Z"/><path class="a" d="M27.93,44V37.77H29.3V44A3.34,3.34,0,0,0,33,47.59c2.22,0,3.63-1.2,3.63-3.56V37.77H38v6.17c0,3.14-2,4.77-5,4.77S27.93,47.08,27.93,44Z"/><path class="a" d="M41.23,37.77h5.19a5.13,5.13,0,0,1,3.43,1.07A2.82,2.82,0,0,1,50.78,41v0c0,1.78-1.37,2.83-3.27,3.14l3.71,4.4H49.54L46,44.36H42.59v4.18H41.23Zm5.07,5.49c1.81,0,3.11-.83,3.11-2.22v0c0-1.32-1.14-2.12-3.09-2.12H42.59v4.37Z"/><path class="a" d="M68.14,37.77h8.67v1.12H69.5v3.85H76v1.11H69.5v4.69H68.14Z"/><path class="a" d="M78.68,43.18v0c0-3,2.5-5.57,6.17-5.57S91,40.15,91,43.12v0c0,3-2.5,5.58-6.17,5.58S78.68,46.16,78.68,43.18Zm10.89,0v0a4.53,4.53,0,0,0-4.75-4.44,4.48,4.48,0,0,0-4.73,4.41v0a4.54,4.54,0,0,0,4.76,4.45A4.48,4.48,0,0,0,89.57,43.18Z"/><path class="a" d="M93.7,44V37.77h1.36V44a3.34,3.34,0,0,0,3.69,3.63c2.23,0,3.64-1.2,3.64-3.56V37.77h1.36v6.17c0,3.14-2,4.77-5,4.77S93.7,47.08,93.7,44Z"/><path class="a" d="M107,37.77h5.19a5.15,5.15,0,0,1,3.43,1.07,2.82,2.82,0,0,1,.93,2.13v0c0,1.78-1.38,2.83-3.28,3.14l3.71,4.4h-1.67l-3.5-4.18h-3.45v4.18H107Zm5.07,5.49c1.81,0,3.1-.83,3.1-2.22v0c0-1.32-1.14-2.12-3.09-2.12h-3.72v4.37Z"/><path class="a" d="M132.77,47l.84-.89a6.11,6.11,0,0,0,4.14,1.52c1.62,0,2.69-.77,2.69-1.83v0c0-1-.6-1.57-3.14-2.05-2.78-.54-4.05-1.34-4.05-3.11v0c0-1.69,1.67-2.94,4-2.94a6.8,6.8,0,0,1,4.25,1.33l-.8.93a5.71,5.71,0,0,0-3.48-1.16c-1.57,0-2.57.76-2.57,1.73v0c0,1,.62,1.58,3.28,2.09s3.93,1.4,3.93,3v0c0,1.85-1.73,3.05-4.12,3.05A7.49,7.49,0,0,1,132.77,47Z"/><path class="a" d="M144.84,37.77h1.36V48.54h-1.36Z"/><path class="a" d="M153.58,43.05l-4.46-5.28h1.6l3.71,4.4,3.67-4.4h1.59L155.22,43l4.64,5.51h-1.62l-3.86-4.63-3.87,4.63h-1.57Z"/><rect class="a" y="31.57" width="161.33" height="1.56"/><polygon class="b" points="57.42 40.65 61.95 40.65 61.95 45.19 57.42 45.19 57.42 40.65 57.42 40.65"/><polygon class="b" points="122.6 40.64 127.14 40.64 127.14 45.17 122.6 45.17 122.6 40.64 122.6 40.64"/><path class="a" d="M15.24.51C22.83.51,29.8,5.7,29.8,13.72S23.85,26.94,15.93,26.94H.65V26c2.9,0,3.23-.33,3.23-3.45V4.94c0-3.12-.33-3.41-3.23-3.45v-1Zm-6.1,22C9.07,25.63,9.72,26,13.5,26c7.33,0,10.67-5.34,10.67-12.24S20.11,1.49,13.5,1.49c-4.21,0-4.36.25-4.36,1.34Z"/><path class="a" d="M35.24,4.94c0-3.12-.33-3.41-2.69-3.45v-1h21.2l2.76,6.93-.65.26c-3.3-4.14-5.48-6.21-9.4-6.21h-6V12.81h2.11c3.67,0,7.4-1.19,7.8-5.33h.88v12.3h-.88c-.4-4.1-2.36-6-7.8-6H40.5V24.18c0,1.41.11,1.78,1.38,1.78h3.81c6,0,7.26-2,10.64-6.68l.8.43-2,7.23H32.55V26c2.36,0,2.69-.33,2.69-3.45Z"/><path class="a" d="M78.94,9.37H78C76.91,5.63,74,1,69.54,1c-2.25,0-4.75,1.31-4.75,3.92,0,3.09,3.95,4.28,7.95,5.92s7.91,3.63,7.91,8.35c0,6.31-4.25,8.27-10,8.27a23.41,23.41,0,0,1-4.25-.54,23.73,23.73,0,0,0-2.72-.58c-.43,0-1,.58-1.49,1.05H61.08V18.08h.8c1.78,4.46,3.92,8.38,8.75,8.38,3.05,0,6.06-1.48,6.06-4.24,0-3.6-3.92-4.87-7.8-6.47s-7.84-3.48-7.84-8.31S65.08,0,69.47,0A15,15,0,0,1,73.9.69a19.79,19.79,0,0,0,2.36.69A2.55,2.55,0,0,0,78.15.22h.79Z"/><path class="a" d="M88.31,4.94c0-3.12-.33-3.41-3.71-3.45v-1H97.27v1c-3.37,0-3.7.33-3.7,3.45V22.51c0,3.12.33,3.41,3.7,3.45v1H84.6V26c3.38,0,3.71-.33,3.71-3.45Z"/><path class="a" d="M128.56,14.74v1c-1.56,0-2,.47-2,1.74v6.83c-2.87,3-8.89,3.15-12.67,3.15a14,14,0,0,1-13.87-13.72A14,14,0,0,1,113.93,0a16.72,16.72,0,0,1,6.57,1.2,11.89,11.89,0,0,0,3.67,1.12c.47,0,.69-.58,1.09-1.63h1V9.37h-.87c-2.65-5-5.78-8.39-10-8.39-7.76,0-9.76,5.92-9.69,12.74,0,5.77,1.89,12.74,8.24,12.74,6.1,0,7.62-1.34,7.62-7.29,0-3.2-.36-3.42-3.7-3.45v-1Z"/><path class="a" d="M135.38,22.54c0,2.62,1.82,3.42,4.21,3.42v1h-9.14V26c2.28-.15,3.55-1.24,3.55-3.42V2.76c0-1.16-2.58-1.2-3.37-1.27v-1h9.76l17,19.31V4.9c0-2.83-1.13-3.41-4.11-3.41v-1h8.9v1c-2.58,0-3.41.47-3.41,3.41V27.44h-1.46L135.49,3h-.11Z"/></svg>